<svg xmlns="http://www.w3.org/2000/svg" viewBox="0 0 61.42 61.43"><defs><style>.cls-1{fill:#fff;}</style></defs><title>Recurso 1</title><g id="base" data-name="base"><g id="foreground" data-name="foreground"><path class="cls-1" d="M0,61.43V0H61.42V61.43ZM25.66,19l-.24.12a4.83,4.83,0,0,0-.44-.64,9.91,9.91,0,0,0-13-1.11A10.52,10.52,0,0,0,8,28.2c.08.43,0,.68-.43.87A11.31,11.31,0,0,0,.4,41.68,11.42,11.42,0,0,0,11.64,51.5c12.68.11,25.36,0,38,0a11.38,11.38,0,0,0,1.31-.1,11.56,11.56,0,0,0,10-14.19c-.91-4.17-3.59-6.85-7.48-8.38-.52-.21-.67-.42-.52-1a12.47,12.47,0,0,0,.26-4.71,14.43,14.43,0,0,0-3.64-8.37,13.54,13.54,0,0,0-12.61-4.75c-5.12.75-8.73,3.71-11,8.34Z"/><path d="M25.66,19l.3-.57c2.25-4.63,5.86-7.59,11-8.34a13.54,13.54,0,0,1,12.61,4.75,14.43,14.43,0,0,1,3.64,8.37,12.47,12.47,0,0,1-.26,4.71c-.15.54,0,.75.52,1,3.89,1.53,6.57,4.21,7.48,8.38A11.56,11.56,0,0,1,51,51.43a11.38,11.38,0,0,1-1.31.1c-12.67,0-25.35.08-38,0A11.42,11.42,0,0,1,.4,41.68,11.31,11.31,0,0,1,7.52,29.07c.47-.19.51-.44.43-.87a10.52,10.52,0,0,1,4-10.85,9.91,9.91,0,0,1,13,1.11,4.83,4.83,0,0,1,.44.64Zm9.79,22.16c.65-.08,1.31-.11,1.95-.24a9.7,9.7,0,1,0-10.91-5.71,1.1,1.1,0,0,1-.29,1.43q-3,3-6,6.11a2.89,2.89,0,0,0,1.45,4.78,3,3,0,0,0,2.87-1c2-2,4-4.07,6-6.13a.67.67,0,0,1,.88-.18A10.13,10.13,0,0,0,35.45,41.14Z"/><path class="cls-1" d="M35.45,41.14a10.13,10.13,0,0,1-4.07-.92.67.67,0,0,0-.88.18c-2,2.06-4,4.09-6,6.13a3,3,0,0,1-2.87,1,2.89,2.89,0,0,1-1.45-4.78q3-3.07,6-6.11a1.1,1.1,0,0,0,.29-1.43A9.72,9.72,0,1,1,37.4,40.9C36.76,41,36.1,41.06,35.45,41.14Zm.17-15.55a5.84,5.84,0,0,0-.19,11.67,5.89,5.89,0,0,0,6-5.91C41.41,27.87,38.26,25.36,35.62,25.59Z"/><path d="M35.62,25.59c2.64-.23,5.79,2.28,5.84,5.76a5.89,5.89,0,0,1-6,5.91,5.84,5.84,0,0,1,.19-11.67Z"/></g></g></svg>